HIERARCHY
ROOT Hips
{
	OFFSET 8.91173 92.52490 -21.95620
	CHANNELS 6 Xposition Yposition Zposition Zrotation Xrotation Yrotation
	JOINT Spine
	{
		OFFSET 0.00000 14.09320 -1.51142
		CHANNELS 3 Zrotation Xrotation Yrotation
		JOINT Spine1
		{
			OFFSET 0.00000 8.69660 0.00000
			CHANNELS 3 Zrotation Xrotation Yrotation
			JOINT Spine2
			{
				OFFSET 0.00000 8.69660 0.00000
				CHANNELS 3 Zrotation Xrotation Yrotation
				JOINT Spine3
				{
					OFFSET 0.00000 8.69660 0.00000
					CHANNELS 3 Zrotation Xrotation Yrotation
					JOINT Neck
					{
						OFFSET 0.00000 11.18130 1.11813
						CHANNELS 3 Zrotation Xrotation Yrotation
						JOINT Neck1
						{
							OFFSET 0.00000 5.70631 0.00000
							CHANNELS 3 Zrotation Xrotation Yrotation
							JOINT Head
							{
								OFFSET 0.00000 5.70631 0.00000
								CHANNELS 3 Zrotation Xrotation Yrotation
								End site
								{
									OFFSET 0.00000 9.71257 0.00000
								}
							}
						}
					}
					JOINT RightShoulder
					{
						OFFSET 0.00000 7.98668 5.19711
						CHANNELS 3 Zrotation Xrotation Yrotation
						JOINT RightArm
						{
							OFFSET 0.00000 18.31580 0.00000
							CHANNELS 3 Zrotation Xrotation Yrotation
							JOINT RightForeArm
							{
								OFFSET 0.00000 28.87420 0.00000
								CHANNELS 3 Zrotation Xrotation Yrotation
								JOINT RightHand
								{
									OFFSET 0.00000 23.87720 0.00000
									CHANNELS 3 Zrotation Xrotation Yrotation
									JOINT RightHandThumb1
									{
										OFFSET -2.41094 4.67063 3.47303
										CHANNELS 3 Zrotation Xrotation Yrotation
										JOINT RightHandThumb2
										{
											OFFSET 0.00000 3.95207 0.00000
											CHANNELS 3 Zrotation Xrotation Yrotation
											JOINT RightHandThumb3
											{
												OFFSET 0.00000 2.15568 0.00000
												CHANNELS 3 Zrotation Xrotation Yrotation
												End site
												{
													OFFSET 0.00000 1.91616 0.00000
												}
											}
										}
									}
									JOINT RightHandIndex1
									{
										OFFSET 0.00000 12.45500 2.51496
										CHANNELS 3 Zrotation Xrotation Yrotation
										JOINT RightHandIndex2
										{
											OFFSET 0.00000 4.79039 0.00000
											CHANNELS 3 Zrotation Xrotation Yrotation
											JOINT RightHandIndex3
											{
												OFFSET 0.00000 2.63472 0.00000
												CHANNELS 3 Zrotation Xrotation Yrotation
												End site
												{
													OFFSET 0.00000 1.91616 0.00000
												}
											}
										}
									}
									JOINT RightHandMiddle1
									{
										OFFSET 0.00000 12.45500 -0.07984
										CHANNELS 3 Zrotation Xrotation Yrotation
										JOINT RightHandMiddle2
										{
											OFFSET 0.00000 5.38919 0.00000
											CHANNELS 3 Zrotation Xrotation Yrotation
											JOINT RightHandMiddle3
											{
												OFFSET 0.00000 3.11376 0.00000
												CHANNELS 3 Zrotation Xrotation Yrotation
												End site
												{
													OFFSET 0.00000 2.03592 0.00000
												}
											}
										}
									}
									JOINT RightHandRing1
									{
										OFFSET 0.00000 11.07780 -2.67464
										CHANNELS 3 Zrotation Xrotation Yrotation
										JOINT RightHandRing2
										{
											OFFSET 0.00000 4.91015 0.00000
											CHANNELS 3 Zrotation Xrotation Yrotation
											JOINT RightHandRing3
											{
												OFFSET 0.00000 3.11376 0.00000
												CHANNELS 3 Zrotation Xrotation Yrotation
												End site
												{
													OFFSET 0.00000 2.03592 0.00000
												}
											}
										}
									}
									JOINT RightHandPinky1
									{
										OFFSET 0.00000 9.70055 -5.26943
										CHANNELS 3 Zrotation Xrotation Yrotation
										JOINT RightHandPinky2
										{
											OFFSET 0.00000 3.95207 0.00000
											CHANNELS 3 Zrotation Xrotation Yrotation
											JOINT RightHandPinky3
											{
												OFFSET 0.00000 2.15568 0.00000
												CHANNELS 3 Zrotation Xrotation Yrotation
												End site
												{
													OFFSET 0.00000 1.91616 0.00000
												}
											}
										}
									}
								}
							}
						}
					}
					JOINT LeftShoulder
					{
						OFFSET 0.00000 7.98668 5.19711
						CHANNELS 3 Zrotation Xrotation Yrotation
						JOINT LeftArm
						{
							OFFSET 0.00000 18.31580 0.00000
							CHANNELS 3 Zrotation Xrotation Yrotation
							JOINT LeftForeArm
							{
								OFFSET 0.00000 28.87420 0.00000
								CHANNELS 3 Zrotation Xrotation Yrotation
								JOINT LeftHand
								{
									OFFSET 0.00000 23.87720 0.00000
									CHANNELS 3 Zrotation Xrotation Yrotation
									JOINT LeftHandThumb1
									{
										OFFSET 2.41094 4.67063 3.47303
										CHANNELS 3 Zrotation Xrotation Yrotation
										JOINT LeftHandThumb2
										{
											OFFSET 0.00000 3.95207 0.00000
											CHANNELS 3 Zrotation Xrotation Yrotation
											JOINT LeftHandThumb3
											{
												OFFSET 0.00000 2.15568 0.00000
												CHANNELS 3 Zrotation Xrotation Yrotation
												End site
												{
													OFFSET 0.00000 1.60000 0.00000
												}
											}
										}
									}
									JOINT LeftHandIndex1
									{
										OFFSET 0.00000 12.45500 2.51496
										CHANNELS 3 Zrotation Xrotation Yrotation
										JOINT LeftHandIndex2
										{
											OFFSET 0.00000 4.79039 0.00000
											CHANNELS 3 Zrotation Xrotation Yrotation
											JOINT LeftHandIndex3
											{
												OFFSET 0.00000 2.63472 0.00000
												CHANNELS 3 Zrotation Xrotation Yrotation
												End site
												{
													OFFSET 0.00000 1.91616 0.00000
												}
											}
										}
									}
									JOINT LeftHandMiddle1
									{
										OFFSET 0.00000 12.45500 -0.07984
										CHANNELS 3 Zrotation Xrotation Yrotation
										JOINT LeftHandMiddle2
										{
											OFFSET 0.00000 5.38919 0.00000
											CHANNELS 3 Zrotation Xrotation Yrotation
											JOINT LeftHandMiddle3
											{
												OFFSET 0.00000 3.11376 0.00000
												CHANNELS 3 Zrotation Xrotation Yrotation
												End site
												{
													OFFSET 0.00000 2.03592 0.00000
												}
											}
										}
									}
									JOINT LeftHandRing1
									{
										OFFSET 0.00000 11.07780 -2.67464
										CHANNELS 3 Zrotation Xrotation Yrotation
										JOINT LeftHandRing2
										{
											OFFSET 0.00000 4.91015 0.00000
											CHANNELS 3 Zrotation Xrotation Yrotation
											JOINT LeftHandRing3
											{
												OFFSET 0.00000 3.11376 0.00000
												CHANNELS 3 Zrotation Xrotation Yrotation
												End site
												{
													OFFSET 0.00000 2.03592 0.00000
												}
											}
										}
									}
									JOINT LeftHandPinky1
									{
										OFFSET 0.00000 9.70055 -5.26943
										CHANNELS 3 Zrotation Xrotation Yrotation
										JOINT LeftHandPinky2
										{
											OFFSET 0.00000 3.95207 0.00000
											CHANNELS 3 Zrotation Xrotation Yrotation
											JOINT LeftHandPinky3
											{
												OFFSET 0.00000 2.15568 0.00000
												CHANNELS 3 Zrotation Xrotation Yrotation
												End site
												{
													OFFSET 0.00000 1.91616 0.00000
												}
											}
										}
									}
								}
							}
						}
					}
				}
			}
		}
	}
	JOINT RightUpLeg
	{
		OFFSET -10.06560 0.00000 0.00000
		CHANNELS 3 Zrotation Xrotation Yrotation
		JOINT RightLeg
		{
			OFFSET 0.00000 -42.98740 0.00000
			CHANNELS 3 Zrotation Xrotation Yrotation
			JOINT RightFoot
			{
				OFFSET 0.00000 -44.62500 0.00000
				CHANNELS 3 Zrotation Xrotation Yrotation
				JOINT RightForeFoot
				{
					OFFSET 0.00000 -3.74821 0.00000
					CHANNELS 3 Zrotation Xrotation Yrotation
					JOINT RightToeBase
					{
						OFFSET 0.00000 0.00000 14.67920
						CHANNELS 3 Zrotation Xrotation Yrotation
						End site
						{
							OFFSET 0.00000 0.00000 10.36040
						}
					}
				}
			}
		}
	}
	JOINT LeftUpLeg
	{
		OFFSET 10.06560 0.00000 0.00000
		CHANNELS 3 Zrotation Xrotation Yrotation
		JOINT LeftLeg
		{
			OFFSET 0.00000 -42.98740 0.00000
			CHANNELS 3 Zrotation Xrotation Yrotation
			JOINT LeftFoot
			{
				OFFSET 0.00000 -44.62500 0.00000
				CHANNELS 3 Zrotation Xrotation Yrotation
				JOINT LeftForeFoot
				{
					OFFSET 0.00000 -3.74821 0.00000
					CHANNELS 3 Zrotation Xrotation Yrotation
					JOINT LeftToeBase
					{
						OFFSET 0.00000 0.00000 14.67920
						CHANNELS 3 Zrotation Xrotation Yrotation
						End site
						{
							OFFSET 0.00000 0.00000 10.67280
						}
					}
				}
			}
		}
	}
}
MOTION
Frames: 3
Frame Time: 0.016667
1.185933587198027084e+01 9.197746833607413919e+01 3.038612952217511420e+01 -4.541156042662428227e+00 1.490480754728661239e+01 1.270218615975910978e+02 -4.801305525993734946e+00 7.765680001298322921e+00 3.947564239892017990e-02 -1.986977720275440396e+00 7.494352970441977568e+00 7.642587834169354277e-01 -9.865866342606623984e-01 2.506216451501162013e+00 1.128042741683328853e-01 2.901610121913767770e+00 6.910619483480279213e-01 -9.944285068645565273e-01 -4.814251617648975135e+00 1.202479556722067855e+01 4.896542092799277768e+00 -3.265982329512259863e+00 -1.351232434894173995e+00 4.735033378547089278e+00 -4.112795427787139246e+00 -1.510977778807288807e+01 7.026301615467939188e-01 9.592440691294011401e+01 -1.296172736828984462e+01 1.335327096910223332e+00 7.871420783710956925e+01 4.123531687429561288e+01 -4.228695502672439233e+01 1.803020308097172233e+02 2.900752896652046786e+01 1.612187209671068331e+02 -9.272201303408007078e+00 4.179227288494644199e+00 -2.124778096002479313e-05 9.177550961149973929e-01 2.431950477391668031e+00 -6.482902388053251030e-01 3.980309037479532965e-15 4.830753991540117527e-15 -1.576378296297969744e-17 3.146980462723710329e-15 1.585024310739649869e-15 -3.179595002892316649e-15 -2.813196128227313508e+01 2.146687259461177119e-15 -2.839619500398381337e-15 1.586771913106421435e-15 3.218863361546354131e-15 -1.546802250790385378e-15 7.671946290307328210e-16 3.193394008574197099e-15 -3.179836024462063069e-15 -2.497726459612669458e+01 1.728570978693934693e-15 -3.454464378972694970e-15 7.734620076803848623e-16 3.214494705973161924e-15 -3.127259656541784385e-15 1.606830861704549112e-15 6.367517170186932714e-15 -3.182731219038274552e-15 -1.469605222345272466e+01 1.824250348896365793e-16 -2.838105706571183600e-15 1.591884948695586190e-15 -6.774538128667814670e-18 -3.240263079313092422e-15 3.207805278782261864e-15 4.139303068611258813e-17 -3.142057181514449778e-15 1.293827590856374243e+01 -1.837706853792437178e-15 -1.712838687422207154e-15 3.201186542551551754e-15 -1.545471459225447236e-15 9.534790990573207127e-15 2.335432241293212181e-15 -4.798728561014857763e-15 3.143084232677209924e-15 -9.378501369756689598e+01 -1.303401117218895600e+01 -9.370792585214092751e-01 -6.923474550391078708e+01 3.704608060648182288e+01 6.652339368541120734e+00 -4.964691657693609983e+00 7.478137677164927766e+01 -4.840013308886320686e+01 1.272824575098925592e+01 6.389180397928088340e+00 3.008327513344135305e-04 3.557587786315282585e+01 4.411489657416389321e+01 -2.409392847002494875e+01 -2.409622936022983147e-15 -8.452418106571664680e-17 -1.594867670269150511e-15 3.980640454536106252e-15 3.223734296123487853e-15 3.233984557369514234e-15 3.642473079631967181e+01 3.203143628245279454e-15 6.150036504439996991e-15 -3.182462983225381172e-15 3.196888898191336367e-15 -4.798759322546703352e-15 -1.570576558531798906e-15 -3.174287209409208129e-15 7.938195775651491294e-15 2.411417318076929561e+01 2.782710656992292365e-15 2.979474138587913263e-15 3.217629633600652510e-15 6.356330827846016418e-15 -5.114919219901989592e-15 1.552714371252714611e-15 3.156534981201555784e-15 -6.768998874327832479e-15 -3.478980979082113123e+00 2.836559315411195139e-15 -2.178959378900660328e-15 -1.857592944617178660e-17 -3.197677254827019002e-15 4.820766474078377238e-15 -3.013099564126410105e-17 3.232693743481939930e-15 2.394153485291306045e-15 -4.428837927764727311e+01 7.578399546687589157e-15 -7.325350930551541207e-15 3.176057405650284723e-15 4.816494433621619678e-15 5.625697455415642873e-18 3.191180160617213341e-15 4.778192027389384025e-15 9.846911040742359635e-18 -8.568273145307959027e+00 1.740257432523421244e+01 -6.548129754009539560e+00 8.023284214888852794e-01 1.343672321889238574e+01 1.721232099817662231e+00 4.181944887337348260e-01 -2.221693296226434100e+01 -2.416069866861733306e+00 -2.484625029075737543e-16 4.013062553658618952e-16 2.625973330956073920e-15 3.394009618422120095e-17 1.113895600569550481e+01 -2.505773851867026871e-15 1.131474355485259320e+00 1.462880002909343169e+00 2.717309246548599688e+01 3.090250715365896461e-01 1.338344101701135003e+01 1.186942151068430817e-01 -4.982611451618792486e+00 2.113647637560323922e+00 -3.773482201371862743e+00 2.419227970771825689e-16 -3.411402631388890520e-17 3.470665032718228270e-15 6.730778657543412132e-17 -3.527349887490084601e+00 4.507889360188768979e-15
-1.141552182950569971e+01 9.292161645250807567e+01 -1.196165401428568131e+01 -5.512302482197446452e+00 9.972998849607158434e+00 -1.597508291864971000e+02 -5.694960086848379177e+00 8.887187259059148303e+00 -2.445374244729068280e-01 -2.357076944156534903e+00 7.975103738120996155e+00 8.401358575423737429e-01 -1.297278308267870495e+00 2.581024872376921575e+00 -2.686881449284258316e+00 3.601100639519276392e+00 1.814663776003472506e+00 -1.655509138038409045e+00 -3.704124257222607852e+00 1.550766457029218870e+01 3.965512678488078535e+00 5.760178848670232110e-01 -4.001411102094177608e+00 7.564967778440149893e+00 -3.593402869263184751e-01 -1.793604771016388000e+01 5.430855456584724461e-01 1.011298627025559398e+02 -1.758602224493093047e+01 3.312984409466239732e+00 7.224457112263675640e+01 1.062178124611311603e+01 -3.177318618659328564e+01 -9.496132588731702739e-01 4.411883271842227572e+01 -1.094928819399132536e+01 1.345149033926328030e+01 -8.266277786361069246e+00 -1.969759745984713743e-05 -4.936544782467650272e+00 4.802712585568066572e+00 9.991542439308673806e-01 1.586607706388444673e-15 -3.240596257391826388e-15 3.211241493731951672e-15 1.734604889050707004e-17 4.907106343767658893e-17 -3.194832104807127753e-15 -2.365110570150106284e-01 2.147354361059520344e-15 5.451484565905324338e-15 -2.377153014836976206e-15 -2.031448529123515457e-17 -3.156769034101439796e-18 1.760794799401702138e-17 1.581527648420844941e-15 2.209854961262005970e-17 9.254344370952587440e+00 3.606689119731592050e-15 6.487763856192773891e-15 -3.936355701641444333e-15 4.727566290210256182e-15 9.528493727269351333e-15 1.403727874880456373e-17 1.128031414097760902e-17 3.154526114561742717e-15 1.875336952186903261e+01 3.099442237447114886e-15 5.439548818528340561e-15 3.586465601953263070e-15 -1.952391007973020301e-15 -8.937317679317839107e-18 -2.093349709888823652e-16 9.951370314442934598e-16 -6.372521896434310954e-15 4.487674113011978960e+01 3.330643275764361472e-15 4.417153433596050612e-15 2.351131428133109140e-15 3.155060061865756645e-15 -1.750420807537305139e-17 -1.556324204754102833e-15 3.181955671292562132e-15 3.731228092130444389e-17 -9.501468808939897315e+01 -1.476246152832565528e+01 -1.277120290165011829e+00 -8.729705006231506559e+01 4.063812971733240431e+01 3.898424664817578389e+01 1.813765778881650590e+02 5.329076189296110755e+01 -1.593223074010695655e+02 7.323792646133441941e+00 1.000354092022202934e+01 -4.739353149154151780e-05 2.512626813376809309e+01 2.767914253411127490e+01 -1.598631821406834064e+01 1.592715917710581212e-15 -3.132270862271479772e-15 6.407566201102430749e-15 1.978570584658013825e-17 3.156287822342473801e-15 -4.586072454576452290e-17 1.870019625204072966e+01 -1.412255742971093310e-15 1.870463716889172920e-15 -1.112661568133720495e-15 5.986576413435564183e-16 1.587299496504670598e-15 4.115994243587179383e-16 3.948182012411755086e-16 5.791531874606963149e-18 1.261900202848315544e+01 -2.229986901221749451e-15 2.227123238439068302e-15 3.597861035678337118e-16 -4.277456148358413484e-16 3.130709513831683621e-15 2.428355063369125907e-16 -1.698279804639505548e-16 6.382704389859303658e-15 5.089223584176984616e+00 -1.463102570029747137e-15 1.894640223790935685e-15 2.800840379126168817e-15 7.644097826569993639e-17 1.601832343621187110e-15 2.997367637877156827e-15 -3.200289486467977283e-17 3.163985270108151675e-15 -1.610465677555784936e+01 -2.070212971802964896e-16 8.502849909843599375e-16 -1.970311918828728429e-15 -5.395917074234108220e-17 1.556402642144538216e-15 1.612983339113818136e-15 1.629057153790503086e-15 -1.556651076652275048e-15 -2.691131143984122787e+00 9.591173222238996487e+00 -9.709735190094242796e+00 7.901840059819518203e-01 1.086940407883694171e+01 2.080757780559594483e-01 -3.652520007180054762e+00 -1.457135666300160537e+01 -9.473308115015729669e+00 2.126192707070960887e-17 -7.986152855111708316e-16 3.519544509545147506e-15 -3.736032112030289637e-16 1.271076316586880495e+01 2.834834209435112077e-15 1.357008022139628345e+00 6.379193724861744741e+00 2.470990993079136189e+01 8.651623509003480983e-02 1.964440812140608728e+01 -6.041961895202740962e-02 -3.190203721024013284e+00 -7.889072363245590580e+00 -1.105268023007166533e+00 -7.396233618703772872e-17 8.143422743160832528e-16 2.081645926594648948e-15 -3.660561883143627788e-16 -2.504128828139414065e+00 1.108112238295172350e-15
8.890483000483316189e+00 9.213516293323401385e+01 -2.880726713017097040e+01 -1.038560506031592112e+01 1.271877263299518646e+01 -1.618643163782457464e+02 -7.525582682874119911e+00 8.657869561552866244e+00 4.785458249278345261e-02 -2.100239137608152618e+00 6.818138820161372848e+00 8.491186452152930109e-01 -1.767524297810955325e+00 2.435503721959683787e+00 6.253403704724959100e-01 2.417223313598376944e+00 1.375884768214834519e+00 -9.599263867540677175e-01 -2.368560839753609759e+00 1.246189866285028103e+01 8.106133586763031307e-01 -2.182646399372238477e+00 -1.550093360437716949e+00 -3.736062056659208430e+00 -2.077887091671517528e+00 -1.572837634615320468e+01 -8.239946232260395020e-02 8.857993864992275235e+01 -1.852053347122043903e+01 -2.155023817468211256e-01 1.453830163040848333e+01 4.377019752008618525e+01 2.171571822691674214e+01 1.630261574364847199e+00 7.465194765222733508e+01 -1.829139061340150718e+01 1.237935118411526503e+01 -7.805829405064935500e+00 1.882514432893225235e-05 -3.351698788300103615e+01 3.874571046662072149e+01 2.518430671868686233e+01 -3.198014268527163650e-15 -3.672686660571426693e-17 -7.107268540970427778e-18 -3.180907948280753216e-15 6.358729887205093331e-15 6.365003758384053147e-15 -3.133077848253655873e+00 -6.910049965247457329e-16 -6.921975011184609376e-16 -9.773654091673202203e-18 -3.217089183136499254e-15 -7.635925816581166743e-16 2.167318498516885644e-17 -1.535442851816728164e-15 3.996301673044754671e-16 -9.061206386676374791e-01 -4.283933581924284107e-16 -2.152304205395067773e-16 -7.727691777372819475e-16 -2.668463437043483778e-17 2.678439042657651158e-16 7.976152857652736611e-16 3.958851218163623916e-17 5.190382165140616969e-16 2.922039099536910101e+00 -3.000865917538341533e-16 4.255857004088550349e-16 -4.178866409308223276e-16 -4.098362044598261517e-17 1.151281903508846302e-17 -7.658799909074252543e-16 -2.972507169449442338e-17 1.728337483858451716e-16 1.160476956024749384e+01 2.419431394604427766e-17 1.128491409498998053e-15 -8.321722400225768660e-16 1.556125551432112600e-15 -6.027611759307878705e-16 2.639145185646917000e-17 1.600447942202365718e-15 -9.911957795508551256e-16 -9.183556711206279033e+01 -1.629837171194715495e+01 -6.285068495653503007e-01 -1.523611370554694844e+01 3.282688895299052945e+01 -2.557220578206356976e+01 -3.537455010898618468e+00 6.707329544854746928e+01 2.619645660614752813e+01 -1.574543166483979562e+01 3.887713253529031743e+00 1.387953273104298058e-04 4.636145017103327604e+01 5.285504823542216002e+01 -3.058448851096522603e+01 3.231495366901477226e-15 3.122426146632264087e-15 2.752433972652579616e-17 -3.718978142716316113e-17 -3.160525179454064259e-15 -2.168226625196587883e-17 1.719616870900727790e+01 3.111552081550654479e-16 5.284378705554965549e-15 -1.114362580785633829e-17 4.143726626508715021e-16 1.300137971282338003e-15 7.841984646128986400e-18 -3.796712965493328542e-17 -9.842077594565139654e-16 1.059312067815240965e+01 -9.993825016020205251e-16 3.488950378603251514e-15 -4.081854884218984082e-17 -8.069286879142834378e-16 1.850372099885143574e-15 4.455251470304440059e-18 -3.576586116109282512e-16 2.931800354336526236e-16 -2.613165694943621276e+00 -4.030629842745127690e-17 -6.318267495809232127e-16 -6.308356092992837135e-17 -3.676733024464169817e-16 -5.213844200319486662e-16 -1.244715826969194677e-16 -7.730248817348227650e-16 -2.149996547477586548e-15 -2.451989686895380771e+01 3.102489444570663786e-15 -4.219196735423849643e-15 4.166540343881814607e-17 7.513435564231082759e-16 -6.441157361537942522e-16 3.186675710236188434e-15 4.431829159563439175e-16 -7.734996434789985816e-16 -1.124807261089471311e+01 9.202245783591052941e+00 -4.017478910642980239e+00 7.117886431990072538e-02 2.249631386740238170e+01 -3.015584388959418050e-01 1.254925711884951500e+00 -1.929365979909341888e+01 -2.022358652282392200e+00 2.192150016841001506e-16 -1.927753183612771074e-17 1.621808377998983923e-16 -6.714986693054793731e-16 8.569578561865965227e+00 4.636092904625206891e-15 -7.498434718269304966e+00 5.605988457498460420e+00 1.873856518783806280e+01 -2.178500784595773787e-01 1.570305927370144872e+01 -2.398084259688915143e-01 1.686622788347801993e+00 -3.738804164873481106e+00 -4.689060509963884904e+00 -2.708253671198831828e-16 -7.835387589893242609e-16 -9.489325229239555034e-16 1.607291669953384658e-16 -3.138094522513304341e+00 -6.760383626406934759e-16
